:SAMPLES-PER-SECOND 30
:FULLY-SPECIFIED
:DEGREES
378
root  34.82774449 36.58106947 -14.20365882 9.633169174 -4.09851265 3.118955851
lowerback  -8.85984993 -0.08202467859 -0.1336581856
upperback  -3.694269896 0.351236999 -3.140650034
thorax  1.15854001 0.323657006 -3.135080099
lowerneck  -15.47290039 -4.265120029 -3.090539932
upperneck  17.38150024 -6.184279919 6.767240047
head  8.265999794 -2.308880091 2.064169884
lclavicle  0 -4.497500157e-015 -2.743230041e-014
lhumerus  -46.61040115 30.89069939 63.89490128
lradius  -1.808929142e-006 -6.507048965e-006 29.58480072
lwrist  3.192251654e-007 -3.790274832e-007 -28.34429932
lhand  -4.418926544e-031 -36.95660019 -11.1303997
lfingers  90 7.125020027 -90
lthumb  94.94030451 -25.95559165 101.1719107
rclavicle  0 -4.497500157e-015 -2.743230041e-014
rhumerus  -57.64819717 -47.75130081 -38.91170502
rradius  -5.16745672e-007 2.214343908e-008 33.14339828
rwrist  0.0006954420824 -0.004670973402 -136.9499969
rhand  -1.776028926e-031 6.223360062 -8.216810226
rfingers  -90 -7.125020027 -90
rthumb  -85.00571274 -8.074242527 -58.11119108
rfemur  -10.80562973 15.10275555 12.83797073
rtibia  0.1764724851 -0.9627315402 17.774189
rfoot  1.458500385 -21.71383476 -35.56941605
rtoes  4.267119355 19.55772735 -102.5651686
lfemur  -4.667031765 -15.57831001 -21.63029861
ltibia  5.79492712 0.1599436402 8.917107582
lfoot  0.3401664197 -22.9731369 35.71072388
ltoes  -8.588711541 -18.13053726 -115.8898557
379
root  34.82349125 36.57741396 -14.20298899 9.622778893 -4.055913925 3.119914532
lowerback  -8.871081352 -0.06993815303 -0.09344992042
upperback  -3.67482996 0.3617579937 -3.129800081
thorax  1.185449958 0.3277800083 -3.145450115
lowerneck  -15.49890041 -4.27891016 -3.147730112
upperneck  17.30929947 -6.19299984 6.78125
head  8.249199867 -2.318919897 2.076189995
lclavicle  0 -4.497500157e-015 -2.743230041e-014
lhumerus  -46.60630035 30.91119957 63.98270035
lradius  -1.808929142e-006 -6.507048965e-006 29.6636982
lwrist  3.192251654e-007 -3.790274832e-007 -28.2227993
lhand  -4.419065783e-031 -36.95899963 -11.01280022
lfingers  90 7.125020027 -90
lthumb  94.91616742 -25.84011007 101.1635198
rclavicle  0 -4.497500157e-015 -2.743230041e-014
rhumerus  -57.55000305 -47.28580093 -39.58859634
rradius  -5.16745672e-007 2.214343908e-008 33.4632988
rwrist  0.0006954420824 -0.004670973402 -137.125
rhand  -1.775249764e-031 5.988329887 -7.9759202
rfingers  -90 -7.125020027 -90
rthumb  -84.93273998 -8.261590373 -58.32159862
rfemur  -10.80472946 15.0100832 12.85971737
rtibia  0.1753713787 -0.9682875276 17.81434059
rfoot  1.43896544 -21.76340103 -35.53691101
rtoes  4.276861168 19.55567883 -102.5942712
lfemur  -4.553037643 -15.61957455 -21.66904831
ltibia  5.881640434 0.157847926 8.752710342
lfoot  0.3294873238 -22.89752007 35.72900391
ltoes  -8.603471796 -18.12372167 -115.937297
380
root  34.81880548 36.58276956 -14.20225459 9.586667061 -3.996924639 3.133182049
lowerback  -8.903530121 -0.06723891199 -0.03867169097
upperback  -3.666549921 0.3607630134 -3.125659943
thorax  1.211930037 0.3279699087 -3.172199965
lowerneck  -15.48079967 -4.295839787 -3.204050064
upperneck  17.20000076 -6.210410118 6.828320026
head  8.215474129 -2.331011057 2.100780487
lclavicle  0 -4.497500157e-015 -2.743230041e-014
lhumerus  -46.60620117 30.93670082 64.01560211
lradius  -1.808929142e-006 -6.507048965e-006 29.70159721
lwrist  3.192251654e-007 -3.790274832e-007 -28.17980003
lhand  -0 -36.92089844 -11.04409981
lfingers  90 7.125020027 -90
lthumb  94.9047611 -25.87230121 101.1255599
rclavicle  0 -4.497500157e-015 -2.743230041e-014
rhumerus  -57.38330078 -46.79570007 -40.31679916
rradius  -5.16745672e-007 2.214343908e-008 33.64619827
rwrist  0.0006954420824 -0.004670973402 -137.8809967
rhand  -1.773848057e-031 5.539989948 -7.805990219
rfingers  -90 -7.125020027 -90
rthumb  -84.94849262 -8.374418726 -58.74503664
rfemur  -10.7530899 14.99159145 12.87677383
rtibia  0.1770538092 -0.9447720051 17.83864212
rfoot  1.422350287 -21.75333977 -35.56361008
rtoes  4.318435823 19.54688112 -102.7185043
lfemur  -4.245882988 -15.6359911 -21.80310059
ltibia  6.110100269 0.1371842921 8.312517166
lfoot  0.2814144194 -22.67428398 35.70817947
ltoes  -8.613665019 -18.11900639 -115.9700694
381
root  34.82537758 36.58138786 -14.20678567 9.619049072 -3.970849037 3.138165236
lowerback  -8.930089951 -0.07085989416 -0.1195741147
upperback  -3.631069899 0.3604480028 -3.103739977
thorax  1.262989998 0.3265550137 -3.103549957
lowerneck  -15.49429989 -4.308959961 -3.246049881
upperneck  17.14590073 -6.22644043 6.873740196
head  8.197607994 -2.338698626 2.112686634
lclavicle  0 -4.497500157e-015 -2.743230041e-014
lhumerus  -46.6352005 30.98489952 64.02089691
lradius  -1.808929142e-006 -6.507048965e-006 29.71899986
lwrist  3.192251654e-007 -3.790274832e-007 -28.15100098
lhand  -4.413686917e-031 -36.86610031 -10.88059998
lfingers  90 7.125020027 -90
lthumb  94.84381338 -25.71379657 101.0515919
rclavicle  0 -4.497500157e-015 -2.743230041e-014
rhumerus  -57.38240051 -46.47570038 -40.80789566
rradius  -5.16745672e-007 2.214343908e-008 33.76750183
rwrist  0.0006954420824 -0.004670973402 -138.9029999
rhand  -1.773941833e-031 5.571129799 -7.756949902
rfingers  -90 -7.125020027 -90
rthumb  -84.91547584 -8.418462075 -58.71094747
rfemur  -10.86696053 15.1234169 12.89474583
rtibia  0.1352928281 -0.8716810942 17.96211433
rfoot  1.380063534 -21.61364174 -35.65937805
rtoes  4.341444263 19.54197366 -102.7872811
lfemur  -4.385819435 -15.61607742 -21.74761391
ltibia  6.031716347 0.1449214816 8.460132599
lfoot  0.2758012116 -22.73539925 35.63026428
ltoes  -8.611885318 -18.11983016 -115.9643469
